<?xml version="1.0" standalone="no"?>
<!DOCTYPE svg PUBLIC "-//W3C//DTD SVG 20010904//EN"
 "http://www.w3.org/TR/2001/REC-SVG-20010904/DTD/svg10.dtd">
<svg version="1.0" xmlns="http://www.w3.org/2000/svg"
 width="1024.000000pt" height="1024.000000pt" viewBox="0 0 1024.000000 1024.000000"
 preserveAspectRatio="xMidYMid meet">

<g transform="translate(0.000000,1024.000000) scale(0.100000,-0.100000)"
fill="#1572B6" stroke="none" >
<path d="M1180 9617 c0 -33 660 -8061 663 -8064 3 -2 748 -213 1656 -468
l1651 -464 1601 464 c880 255 1603 466 1606 469 6 6 705 8037 700 8042 -2 2
-1058 6 -2347 9 -1290 3 -3062 7 -3937 10 -876 3 -1593 4 -1593 2z m6420
-2192 l0 -476 -48 -22 c-26 -12 -536 -224 -1133 -472 l-1085 -450 1035 -5
1036 -5 -3 -45 c-11 -156 -251 -2992 -254 -2995 -1 -1 -450 -145 -997 -319
l-994 -316 -1040 290 c-572 160 -1041 291 -1042 293 -1 1 -31 352 -66 780
l-65 777 488 0 c268 0 488 -4 488 -8 0 -20 80 -735 82 -738 2 -1 238 -62 526
-136 l523 -134 576 113 c317 62 578 115 580 117 5 5 122 1223 123 1274 l0 32
-1714 0 -1713 0 -6 28 c-3 15 -33 226 -68 470 -52 366 -60 445 -49 452 7 5
526 228 1151 497 l1138 488 -1169 3 -1170 2 -5 23 c-2 12 -32 222 -65 467 -33
245 -63 455 -65 468 l-5 22 2505 0 2505 0 0 -475z"/>
</g>
</svg>
